<svg xmlns="http://www.w3.org/2000/svg" viewBox="258.3 153.2 607.7 539.3"><path fill="#292929" d="M865.8 601c-.4-.5-1.6-.8-2.1-.6-1.1.5-2.5 1.2-2.9 2.2-1.2 3.4-4.1 5.2-6.5 7.4-3.7 3.4-7.8 6.5-11.7 9.7-.4.3-1.1.1-1.6.2 0-.5-.2-1.1 0-1.6.1-.4.6-.8 1-1.1 3.7-2.8 7.5-5.5 11.1-8.4.7-.6 1.5-2.1 1.2-2.6-.8-1.6-1.8-.4-2.7.2-3.4 2.1-6.8 4.3-10.2 6.5-1.3.8-2.1.3-2.5-1-.7-2-1.5-4.1-2.1-6.2-.9-3.1-1.9-6.2-2.3-9.4-.7-5.4-.8-11-1.6-16.4-1.6-10.4-4.2-20.7-8.9-30.1-5.7-11.4-12-22.5-18.6-33.3-7.1-11.5-15.5-22.1-24.7-32.1-5.8-6.3-11.2-12.9-16.8-19.3-3.9-4.5-7.8-8.9-11.6-13.5-5.8-6.9-11.9-13.5-19.5-18.4-2-1.3-4.6-2.3-5.7-4.2-2.1-3.4-5.2-5.6-8.2-7.7-7.2-5.1-14.7-9.7-22-14.6-.8-.6-1.5-1.7-1.7-2.6-.3-1.5-.3-3.2-.2-4.8.5-12.3-2.3-24-6.8-35.4-3.1-7.7-6.4-15.3-8.8-23.2-2.3-7.6-4-15.4-5.3-23.2-.8-5-1.1-10-3.4-14.7-1.6-3.3-2-7.2-3.3-10.7-2.5-6.8-5.1-13.6-8-20.3-3.4-7.9-7.9-15.1-13.7-21.5-4.9-5.5-10.3-10.5-14.7-16.6-5.6-7.7-12.2-14.7-18.3-22-8-9.5-17.4-17.5-27.2-25.1-2.3-1.8-4.7-3.7-7.2-5.7.8-.5 1.2-.9 1.7-1.1 3.5-1.2 7-2.5 10.6-3.6 2.3-.7 4.7-1.1 7-1.9.7-.3 1.1-1.1 1.7-1.7-.7-.4-1.5-1.1-2.3-1.1-1.6.1-3.2.6-4.8.9-2.3.5-4.5 1-6.8 1.5.9-1.3 2-2.1 3.1-2.7 2.4-1.3 4.9-2.3 7.3-3.6.6-.3.9-1.3 1.4-2-.8-.2-1.6-.6-2.4-.6-.5-.1-1.1.3-1.6.6-2.9 1.6-5.9 3.3-8.8 5-.5.3-1.2.6-1.8.6-3.4.1-6.7 0-10 .4-1.9.2-3.6 1.4-5.1-.7-.2-.3-1-.3-1.7-.5 1.2-.6 2.2-1.1 3.2-1.5 2-.7 4.1-1.2 6-2.1.6-.3.9-1.4 1.4-2.1-.6-.2-1.3-.8-1.9-.7-5.3 1.1-10.6 2.5-15.9 3.6-1.2.3-2.6.2-3.7-.3-10.9-4.6-21.7-9.3-32.6-13.9-.8-.4-1.9-.1-2.9-.1v2.5c-.9.2-1.9.2-2.8.7-.8.4-1.2 1.2-1.8 1.9.8.5 1.5 1.1 2.3 1.4 1.3.5 2.8.9 4.5 1.5.9-.8 2.2-.8 3.3.4.9 1 1.7 2.1 2.5 3.3.2.4.3 1.2.1 1.4-1.7 1.8.2 3.2.5 5 1.5-2.1 3-1.4 4.3.1 2.6 1.5 5.3 3 7.9 4.7.4.3.6 1.6.3 1.9-4 4.1-8 8.2-12.2 12.1-4 3.7-8.4 7.1-12.5 10.8-9.2 8.1-16.4 17.9-23.9 27.4-4.5 5.6-8.4 11.7-12.8 17.4-4.3 5.7-8.5 11.4-11.8 17.8-1.7 3.3-3 6.5-1.7 10.3.5 1.4-1.6 5.5-2.9 5.5-2.8.1-2.8 2.3-3.5 4-.5 1.1-1.1 2.5-2 3-1.5.8-1.8 1.9-2.2 3.3-.7 2.7-1.3 5.5-2.4 8-1.9 4.2-4.1 8.1-6.2 12.2-5.7 11.2-9.5 23.1-13.2 35-2.1 6.5-3.7 13.3-5.3 20-1.6 6.8-3.4 13.6-4.4 20.6-1.1 7.4-1.3 14.9-2 22.4-.1.8-.5 1.9-1.1 2.4-4.8 3.7-9.7 7.1-14.4 10.9-3.5 2.8-8 4.6-9.8 9.2 0 .2-.5.2-.7.4-5.3 3.7-10.8 7.1-15.8 11.1-6.4 5.1-11.7 11.5-17 17.8-5.7 6.7-12.3 12.6-18.1 19.2-4.6 5.3-9 10.8-12.6 16.7-4.6 7.7-8.6 16-12.5 24.2-3.3 7.1-6.4 14.4-9.2 21.7-1.9 5.1-3.3 10.4-4.6 15.8-2.3 9.7-4.4 19.4-6.5 29.2-1.9 8.8-3.8 17.6-5.6 26.5-1 4.9-1.8 9.9-2.5 14.8-.4 2.4-.4 2.5-2.9 1.9-9.3-2.4-18.8-3.7-28.5-3.3-.5 0-1.3.5-1.4 1s.2 1.5.6 1.6c1.7.5 2.3 1.8 2.9 3.3.3.7 1.1 1.3 1.8 1.8 1.3.9 2.7 1.5 4 2.3 6.4 3.7 12.7 7.6 19.1 11.1 1.7.9 2.6 2 2.7 3.8.3 5.9.6 11.7 1 17.6.2 3.9.8 7.9 1.3 11.8.2.8.9 1.5 1.3 2.2.3-.1.6-.1.9-.2.1-1.1.5-2.2.4-3.3-.8-9.2-1.6-18.5-2.4-27.8-.1-.8.4-1.7.6-2.5h.9c.2.8.5 1.7.6 2.5.1 1.1-.1 2.3 0 3.5.3 4 .8 8 .9 12 .2 8.2 1.6 16.1 4.5 23.7.3.7 1.2 1.1 1.8 1.7.2-.8.7-1.7.5-2.5-.8-3.8-2.1-7.5-2.6-11.3-1.1-8-1.9-16.1-2.8-24.1-.1-.7.3-1.5.4-2.3h.6c1 5.2 1.9 10.5 3 15.7.6 2.9 1.4 5.7 2.3 8.5.2.5 1 .8 1.5 1.1 0-.6.3-1.3.1-1.9-.4-1.2-1.1-2.3-1.4-3.6-.7-3-1.3-6.1-1.8-9.1-.2-.8 0-1.6.1-2.4.1-1.4.2-2.7.3-4.1 0-.5.2-1 .3-1.5.6.1 1.6.1 1.7.5.7 1.7 1.6 3.4 1.6 5.1 0 3.7-.5 7.3-.7 11 0 .7.3 1.5.5 2.3h1c.5-4.8 1.1-9.5 1.7-14.3.2-.1.5-.1.7-.1.2.7.4 1.3.5 2 .6 5 1.2 10.1 1.8 15.1.1.5.7.9 1.1 1.4.3-.6.9-1.1.9-1.7-.1-2.2-.3-4.3-.6-6.4-.3-2.3-.7-4.7-1-7 .2-.1.5-.2.7-.3.4.4.9.8 1.3 1.2.5.4 1 .9 1.5 1.3 2.8 1.9 2.8 1.9 1.5 5.1-.6 1.6-.8 3.1 1.2 4.4.6-1.8 1.2-3.3 1.6-4.9.4-1.5 1.1-1.9 2.7-1.5 1.8.4 3.6.5 5.4.6 2.2.2 4.6 0 6.7.5 3.7.9 7.2 2.5 10.9 3.3 6.6 1.4 13.2 2.7 19.9 3.4 5 .6 10.1.1 15.2.2 2.6.1 5.3.1 7.9.6 2.9.5 5.6 1.6 8.5 2.2 2.8.6 5.7 1.1 8.5 1.3 7.1.6 14.3 1.8 21.3 1.2 8-.6 15.9-2.5 23.7-4.7 9-2.6 18.1-4.7 27.3-5.9 13.2-1.7 25.7-5.2 37.8-10.6 2-.9 3.9-2.1 6-2.7 8.3-2.2 16.1-5.5 23.3-10.2 2.6-1.7 5.4-3.3 8.2-4.7.7-.3 1.9-.2 2.6.2 4.3 2.3 8.4 5.1 12.9 7.2 7.9 3.7 16 6.9 24.1 10.3 9.8 4.1 19.9 7 30.2 8.9 9.8 1.8 19.9 3 29.9 3.6 12.3.8 24.7 1.1 37 .9 14.7-.3 29.3-.9 43.7-3.9 6.9-1.5 13.8-3 20.6-5 8.2-2.4 16.2-5.5 24.3-8 12.4-3.9 24.4-8.8 35.7-15.1 5.3-3 10.3-6.6 15.5-9.8.7-.4 1.9-.8 2.2-.5 1.9 1.6 2.6.2 2.9-1.2.7-2.8 3.2-3.5 5.5-5.4.3 2.1.6 3.7.9 5.3 1.1 6 1.5 11.8-.9 17.6-.8 2-1.5 4.2-2 6.3-.2.6.6 1.5 1 2.3.5-.5 1.3-.9 1.5-1.5 3.3-8 4.7-16.3 3.4-25-1-6.8-2.5-5.9 3.9-10.6 3.5-2.5 6.7-5.4 10-8.2 2.9-2.6 5.9-5.3 8.7-8 .4-.4.5-1.7.2-2.1zm-576.1 39.9c-.2-.1-.4-.3-.6-.4-1.1.1-2.3.3-3.4.2-.9-.1-1.8-.4-2.5-.8-1.6-.9-3-1.8-4.5-2.8-1.3-.9-2.4-2.7-3.9-.3-.1.2-1.1 0-1.5-.3-2.4-1.5-4.8-3.1-7.2-4.6-.7-.5-1.7-.5-2.5-1-.6-.4-1.1-1.1-1.7-1.6.6-.4 1.2-1.1 1.8-1.1 5.2.4 10.3.8 15.5 1.5 3.2.5 6.3 1.2 9.4 2.1.7.2 1.8 1.3 1.8 2 0 2.4-.4 4.7-.7 7.1zM814.1 577l.6-.3c.6.8 1.3 1.6 1.8 2.7 3.1 8.5 6.2 17.1 9.2 25.7 1 2.8.4 3.9-2.6 4.8-.7.2-1.7-.1-2.3.2-.6.3-1 1.1-1.8 2.2-1.7-12.2-3.3-23.7-4.9-35.3zm12.7 42c-2.6 1.5-5.1 3.4-7.6 5.1-.3-.1-.5-.3-.8-.4.3-1 .3-2.2.8-3 1.8-2.5 3.7-5 5.7-7.3 1.7-2 2.5-1.7 3.6.7 1.2 2.4.5 3.7-1.7 4.9zM695.9 432.5c5.7 3.4 11.2 7.1 17 10.5 8.1 4.7 14.4 11.6 21.3 17.7 2.6 2.3 5.4 4.4 7.7 6.9 3.1 3.4 5.9 7 8.5 10.7 6.3 9.1 10.9 19.1 15.5 29.2 4.2 9.5 9.8 18.2 16.8 25.8 5.6 6 8 13.3 9.9 20.8 2.4 9.4 4.6 19 6.3 28.6 1.4 7.8 2 15.8 2.9 23.8.2 1.2-.1 2.6-.3 3.9-.4 2.2-1.3 2.6-3.3 1.5-.3-.2-.6-.2-1.2-.4.3 2 1.6 2.5 3 2.9 1.5.4 2.1-.6 2.6-1.8 2-4.6 1.5-9.2.8-13.9-.9-5.6-1.8-11.3-2.8-16.9-.5-2.8-1.1-5.6-1.7-8.4-1.3-5.7-2.6-11.3-4-16.9-.3-1.4-.8-2.8-1.2-4.2-.2-.7-.3-1.3.1-2.2.4.3.8.5 1 .9 2.1 4.7 4.6 9.3 6.2 14.1 2.9 8.6 5.6 17.2 7.8 26 1.8 7.2 2.6 14.6 3.9 21.9.3 1.6-.4 2.4-1.8 3.1l-18 8.7c-5.4 2.6-10.8 5.4-16.3 7.8-11.5 5.1-23.7 7.4-35.9 9.5-9.3 1.6-18.5 3.8-27.8 5-6.5.8-13.1.5-19.6.6-3.3 0-6.7.2-10.1 0-8.7-.4-17.3-1-26-1.5-4.8-.3-9.7-.5-14.5-.6-.8 0-1.7.3-2.5.4 0 .3.1.7.1 1.1 21.9 1.9 43.8 3 66 2.8 0 .3.1.6.1.9-.7.3-1.4.7-2.2.8-4 .4-8.1 1.1-12.2 1-7-.1-14.1-.6-21.1-1.1-6.3-.4-12.6-.9-18.9-1.5-5.1-.5-10.2-1.2-15.3-1.6-8.1-.6-16.1-1.4-24.2-1.6-10.3-.3-20.1-2.5-29.3-7.2-4-1.9-8.1-3.6-11.9-5.7-3.2-1.8-2.9-3.1 0-5.3 8.8-6.6 18-12.9 26.3-20.2 7.4-6.4 14.1-13.6 20.4-21.1 6.8-8.2 12.8-17.1 19.2-25.7 1.6-2.1 3.2-4.1 5.1-5.8 2.9-2.7 4.8-6.1 6.7-9.5 2.7-4.9 5.8-9.5 8.5-14.4 1.3-2.2 2.4-4.7 3.2-7.2.3-1-.2-2.4-.8-3.3-.8-1-.9-1.6-.3-2.7 6.7-11.4 11.8-23.6 16.5-36 3.8-9.9 7.2-19.9 11.2-29.7 2.5-6.1 4.3-12.3 5.1-18.8.3-2.5 1.4-3 3.5-1.7zM813 621.2c-.2.7-.1 1.7-.6 2.1-1.9 1.5-4 3-6.2 4.1-12.7 6.6-26.1 11.6-39.9 15.6-3 .9-6.2 1.4-9.3 2-.2-.3-.3-.5-.5-.8.8-.6 1.4-1.5 2-2 2.2-.9 4.6-1.6 6.8-2.5 2.4-1 4.6-2.3 6.9-3.2 3.6-1.4 7.2-2.7 10.9-3.9 8.7-2.7 17.3-5.9 25.6-9.9.8-.4 1.5-1.1 2.3-1.4.6-.2 1.3-.1 2-.1zm-324.5-43.9c1.5 2 2.3 4.4 5.4 5 1.7.4 3 2.5 4.5 3.8 5.2 4.6 10.3 9.1 15.4 13.6 3.7 3.3 7.4 6.6 11.2 9.9 4.3 3.6 8.6 7.1 12.8 10.8.8.7 2 2.4 1.7 2.8-.8 1.3-2.3 1.7-4 .9-7.4-3.4-14.2-7.4-19.9-13.5-4-4.2-8.9-7.6-13.1-11.7-7.2-7.2-14.2-14.6-21.2-22-1.8-1.8-3.6-3.7-5.1-5.7-4.2-5.5-8.2-11.1-12.1-16.8-2.3-3.2-4.4-6.5-6.2-9.9-2.9-5.5-5.8-11-8.3-16.7-3.1-7-5.7-14.2-8.4-21.3-.9-2.5-1.5-5.2-2.2-7.8-.1-.6-.1-1.3-.1-1.9.3-.1.5-.2.7-.3.5.6 1.1 1.2 1.1 1.7 1.1 2 1.9 4.2 3.1 6.1.6 1 1.8 1.6 2.7 2.5.5.5.9.9 1.2 1.5 2.5 5.4 4.9 10.8 7.3 16.1.7 1.6 1.5 3-.4 4.3-.3.2-.4 1.4-.2 2 .9 2.6 1.7 5.3 3.1 7.7 5.2 8.8 11.4 16.7 18.6 24 4 4.1 7.6 8.6 11.3 13 .5.5.7 1.3 1.1 1.9zm173-161.1c0-.2.3-.3.4-.5h.6c.1 2.5.3 4.9.6 7.3.2 4.4.8 8.9.3 13.3-.7 6.3-2 12.5-3.3 18.7-2.7 12.7-6 25.3-8.5 38.1-1.7 8.8-6.7 15.9-10.6 23.6-.2.5-.6.9-1 1.4-.1.1-.3.1-.8.3.1-1 .1-1.7.3-2.4 1.9-6.8 4.2-13.6 5.8-20.5 2.6-11.4 4.7-23 7-34.5.6-3.5.9-7.1 1.6-10.6.6-3.1 1.6-6.1 2.4-9.1.9-3.8 2-7.5 2.8-11.3.9-4.5 1.6-9.2 2.4-13.8zM539.4 203.7c6.2-4.5 12.3-9.2 18.5-13.8 1.4-1.1 2.6-1.1 4.1.1 9.4 7.3 19 14.3 28.2 21.8 3.2 2.6 5.6 6.3 8.2 9.7 2.5 3.3 4.8 6.8 7.3 10.2.3.5 1.2.6 1.9.9.1-.7.3-1.6.2-2.3-.1-.8-.7-1.5-1-2.2.2-.1.4-.3.6-.4.7.9 1.4 1.7 2.2 1.8 3.2 3.9 6.7 7.5 9.3 11.7 3.2 5.3 5.7 11.1 8.4 16.7 1.8 3.8 3.4 7.7 5.1 11.5.3.7.8 1.3 1.6 1.7-2.1-7.3-3.9-14.6-7.9-21.2l.6-.3c.6.8 1 1.7 1.6 2.6 7.8 12 14.5 24.4 20.4 37.3 2.6 5.6 5.5 11.1 8.2 16.6.3.6.6 1.2 1 1.7 3.9 4.7 2.6 9.8 1.2 14.9-.3 1.3-.5 2.7-.4 4.1.3 4.6.9 9.2 1.1 13.8.2 5.8 0 11.6.1 17.4.1 7.6.2 15.2.4 22.7 0 2.2.4 4.3.5 6.4 0 2.2-.5 2.6-2.5 1.8-2.4-.9-4.7-2.1-7.1-2.9-8.5-2.9-16.9-6-25.5-8.5-3.2-1-6.9-.5-10.4-.8-2.2-.2-4.4-.6-6.5-1.1-8.7-1.9-17.4-3.9-26.1-5.8-1.9-.4-3.8-.4-5.7-.7-2.1-.3-4.1-.9-6.2-1.1-5.2-.4-10.3-.8-15.4-1-9.3-.4-18.3 1.7-27.2 3.9-11 2.7-21.8 5.6-32.6 8.8-5.8 1.7-11.5 4.4-17.1 6.8-4.1 1.8-8.3 3.2-13 3.1 1.2-.5 2.3-1.1 3.5-1.7 1.2-.6 2.4-1.2 3.6-1.7 4.1-1.7 8.2-3.5 12.4-5.2 4.9-2 9.8-3.9 14.7-5.7 2.1-.7 4.4-.9 6.6-1.6 1.4-.4 2.7-1.1 3.9-1.9.3-.2.6-1.1.4-1.5-.1-.4-1-.7-1.4-.6-8.7 1.8-17.7 3-26.2 5.8-8.1 2.7-15.6 6.9-23.2 10.7-4.4 2.2-8.6 4.9-12.8 7.4-1.4.9-1.9.1-1.9-1.1 0-2.6.1-5.3.3-7.9.4-5.2.7-10.4 1.4-15.6.7-5.1 1.8-10.2 3.1-15.1 2.2-8.3 4.7-16.6 7.2-24.8 1.3-4.4 2.7-8.7 4.3-13 4.2-10.9 8-22 12.8-32.6 5.1-11.5 10.4-23 18.4-33 1.4-1.7 3-3.4 4.5-5.1.4-.4 1.1-.8 1.5-.7 2 .9 2.8-.6 3.7-1.8 3.8-4.9 7.3-10 11.3-14.7 7.6-9.1 16.2-17.4 25.8-24.5zM312.2 589.4c-1.5 11-3.3 21.9-4.8 32.9-.4 3-.3 6-.4 9 0 1.2-.1 2.4-.2 3.9-1.7-.8-3.1-1.3-4.4-1.9-.5-.3-.8-1.2-.8-1.8.1-5.7 1-11.4.3-16.9-.8-6.5 1-12.5 1.9-18.7.2-1.5 1.1-2.9 1.7-4.3 3.1-7.2 4.7-14.8 6.3-22.4.8-3.5 2.6-6.8 4-10.2 2.3-5.6 4.6-11.1 7-16.7.3-.7.8-1.2 1.2-1.8.2 0 .4.1.6.1 0 .5.2 1.1 0 1.6-.9 2.7-2 5.4-2.9 8.1-4.4 12.7-7.6 25.8-9.5 39.1zm21.6 61.1c-.3 0-.8-.1-1-.3-2.5-3.5-6.5-4.4-10-6.3-1.7-.9-2.3-2.1-2.6-3.9-1.7-10.7.1-21.4.1-32.1 0-7.7 1.4-15.1 3.6-22.5.7-2.4.7-5.1 1.1-7.6.3-2 .5-4.1 1.2-6 2.8-7.5 5.4-15.1 8.7-22.4 2.7-5.9 6.4-11.2 9.5-16.9 2.6-4.6 4.9-9.4 7.5-14 3.5-6.1 7.1-12 10.9-17.9 3.4-5.2 6.9-10.4 10.6-15.4 6.3-8.5 14.3-15.3 22.4-22.1 6.4-5.5 12.8-11 19.3-16.4 2.4-2 5.1-3.5 7.7-5.2 1.3-.9 1.7.2 1.9 1.2 1.5 6.5 2.8 13 4.3 19.4 3.5 14.9 7 29.8 10.8 44.6 2.9 11.3 7.7 21.8 12.9 32.1 5.1 10.1 11.1 19.6 17.7 28.7 5 6.9 10.7 13.4 16.7 19.5 8.8 8.9 18.2 17.3 27.3 26 .9.8 1.2 2.3 2 3.2.9 1.1 2.1 2.2 3.3 3 3.2 2.3 6.6 4.4 9.9 6.6 1.4.9 1.4 1.7-.1 2.6-8.4 5.2-17.3 9.7-27 12.1-8.3 2-16.6 3.9-24.9 5.8-.7.2-1.4.3-2.1.5 0 .3.1.6.1.9 5.3-.9 10.6-1.7 15.6-2.5.1.3.1.5.2.8-3.1 1.3-6.1 2.7-9.2 3.8-5.7 2.1-11.6 3.9-17.3 6-10.2 3.7-20.6 5.4-31.5 5.3-9.8 0-19.5.3-29.3.8-4.8.3-9.2-1.2-13.8-2-12.4-2.2-24.8-4.1-37.2-6.1-6.4-1.1-12.9-2.2-19.3-3.3zm36.2 12.8h3.7c1.2.1 2.5.2 3.7.3 6.4.5 12.7.9 19.1 1.4.8 0 1.6.3 2.4.2 1-.1 1.9-.5 2.9-.7.9-.3 1.8-.7 2.7-.7 7.2-.1 14.4-.1 21.6-.3 4.5-.1 9.1-.4 13.7-.6-23.3 5.9-46.5 5.9-69.8.4zm27.3 12.7c18.8-1.3 37.5-2.5 56.4-3.7-9 6.3-47 8.9-56.4 3.7zm145.4-37.8c-5.3 2.5-10.5 5.2-15.9 7.2-10.2 3.7-20.5 7-30.7 10.4-3.2 1-6.3 1.9-9.5 2.8-.4.1-1 .1-1.5.1 0-.1-.1-.3-.1-.4.4-.3.7-.7 1.1-1 8.1-3 16.3-5.7 24.1-9.1s15.2-7.6 22.8-11.5c1.3-.6 2.6-1.4 3.9-2.1 2.9-1.7 3.5-1.6 6.1.4 1.5 1.1 1.4 2.4-.3 3.2zm5.4-19.8c-1.6.8-1.7-.2-2.4-1.7-.8-1.9-2.5-3.9-4.3-4.7-3.2-1.4-5.8-3.2-8.5-5.3-5.2-4-9.9-8.4-14.2-13.4-6.1-7-12.1-14.1-18-21.2-2.6-3.1-4.8-6.3-7.3-9.4-.4-.4-1.2-.5-1.8-.8-.1.8-.5 1.7-.2 2.2 1.9 2.8 3.9 5.5 5.8 8.3.8 1.3 1.6 2.5 2.4 3.8-.1.2-.3.3-.5.5-.6-.4-1.2-.9-1.7-1.4-5.5-5.6-9.9-12-13.9-18.7-1.6-2.6-2.6-5.7-4-8.5-.7-1.3-1.3-2.7-2.2-3.8-5.5-7.2-8.4-15.6-11.4-24-3-8.7-5.9-17.4-8.5-26.2-2.1-7.2-3.7-14.5-5.3-21.8-1.5-7.1-2.8-14.3-3.9-21.5-.3-1.8.3-3.7.4-5.6 0-.8.1-1.5 0-2.2-.9-4.4-1.9-8.7-2.8-13.1-.4-1.6.1-2.9 1.8-3.8 12.4-6.8 24.7-13.6 37.1-20.4 4.3-2.3 9-3.9 12.9-6.7 4.2-2.9 8.9-2.3 13.3-3.5 2.1-.6 4.2-1.1 6.4-1.4 1.4-.2 2.7.1 4.1.2.5 0 1 .1 1.5 0 3.1-.6 6.1-1.7 9.2-1.9 6.7-.3 13.4-.3 20.1-.2 8 .2 16.1.3 24.2.9 6.5.4 13 1.3 19.4 2.4 7.8 1.4 15.6 2.9 23.3 4.7 8.3 1.9 16.5 4 24.6 6.3 4.3 1.2 8.5 2.8 12.7 4.3 2 .8 3.1 2 2.5 4.4-.6 2.6-.9 5.3-1.3 8-.4 3-.5 6-1.2 8.9-2.3 10-4.8 20-7.4 29.9-2.2 8.3-4.7 16.4-7.1 24.6-3.2 10.5-7.5 20.5-13.3 29.9-7.3 11.8-15.9 22.8-24.7 33.5-1.8 2.2-3.5 4.5-5.3 6.8.1.1.2.3.3.4 2.3-2.5 4.8-5.1 6.9-7.9 4.1-4.8 8.5-9.4 12.2-14.5 9.3-12.8 18.4-25.8 23.3-41.1 1.8-5.5 3.5-11.1 5.3-16.6.2-.7.5-1.4.8-2.1.2 0 .5.1.7.1 0 .9.2 1.8 0 2.6-3.1 12.3-5 24.9-9.4 36.9-2.8 7.5-6.2 14.5-11.5 20.7-3.1 3.7-5.3 8-8.3 11.7-4.2 5.3-8.7 10.2-12.9 15.4-3.7 4.7-7.6 9.3-10.8 14.4-4.3 6.7-9.1 12.8-15.2 17.9-8 6.6-16 13.1-24.2 19.5-2.3 1.8-5.1 3-7.7 4.2zm11.6 9.9c.5-.7.8-1.7 1.5-2.2 3.5-2.8 7.1-5.4 10.5-8.3 8.5-7.3 16.9-14.7 25.4-22 .7-.6 1.7-1.1 2.5-1.6.2.3.5.5.7.8-11.7 13-24.4 25.1-39.9 33.9-.2-.2-.5-.4-.7-.6zm195.2 31.9c-12 3.8-24.2 7.2-36.8 8.6-6.8.7-13.6.9-20.4 1.3-1 .1-2.1-.4-3.1-1 20.9-2.1 41-7.6 60.9-13.8 20-6.1 39.3-13.8 58.2-22.5.1.2.3.4.4.6-.7.6-1.4 1.4-2.3 1.7-7.3 3.8-14.7 7.7-22.1 11.3-11.2 5.6-22.9 10.1-34.8 13.8z"/></svg>
